<svg xmlns="http://www.w3.org/2000/svg" width="433.425" height="409.086" viewBox="0 0 433.425 409.086"><defs><style>.a{fill:#caffb7;}.b{fill:#78b3e6;}.c{fill:#f4f5f6;}.d{fill:#a8e169;}.e{fill:#69aa22;}.f{fill:none;}.g{fill:#ffdc72;}.h{fill:#ffca2b;}.i{fill:#ffedb3;}.j{fill:#2a3698;}.k{fill:#4f5fdd;}.l{fill:#151d5c;}.m{fill:#2f71c4;}.n{fill:#fcaf17;}.o{fill:#1d58d0;}.p{fill:#696969;}.q{fill:#d2d5d8;}.r{fill:#bfc4c8;}.s{fill:#99a0a7;}.t{fill:#ffc098;}.u{fill:#323232;}.v{fill:#fe9551;}.w{fill:#636a72;}.x{fill:#42474c;}.y{fill:#737c85;}.z{fill:#2376dd;}.aa{fill:#acb2b7;}.ab{fill:#f2f3f4;}.ac{fill:#9b3d01;}.ad{fill:#ffe5d4;}.ae{fill:#dfe1e3;}</style></defs><g transform="translate(-633.929 778.805)"><g transform="translate(633.929 -778.805)"><path class="a" d="M17.662-101.546c-21.2.223-49.388,10.73-83.729,41.778-15.054,12.823-77.075.831-83.141-1.814,0,0-120.243-17.742-143.109,91.857-49.632,143.159,117.418,258.37,175.74,253.143l.978-.035-.05.059c44.4,1.23,96.4,27.818,122.62,23.656,35.125-5.575,62.444-20.071,73.6-79.171,6.69-32.895,25.075-33.618,44.032-55.362,6.285-7.209,7.11-19.376,7.264-28.491.07-3.428,0-6.612,0-6.612s-6.22-29-7.264-39.008c-.879-8.48,5.4-37.7,1.532-59.917C123.408,22.918,112.96,14.1,102.252,4.066,68.581-27.5,65.483-2.127,63.282-70.914c-.645-11.926-16.569-30.933-45.62-30.628Z" transform="translate(301.409 101.546)"/><path class="b" d="M-298.886-38.8q.972,2.914,2.039,5.785l421.681.792c.227-.918-.189.955,0,0,0-.011-.138-5.791,0-6.741Z" transform="translate(308.522 277.951)"/><path class="a" d="M-202.421-3.565C-253.83,2.629-292.807,7.047-254.83,37.693c22.3,18.4,12.266,23.974,51.294,32.337s28.434-.558,80.286,8.921,83.073-3.345,78.613-18.956S-34.6,24.312-23.451,11.489,32.3-4.68,23.94-21.964s-148.863-11.708-167.262-3.345-59.1,21.744-59.1,21.744Z" transform="translate(389.814 294.006)"/><path class="c" d="M-274.035-69.842H-233.8v30.963H-274.51Z" transform="translate(578.593 140.303)"/><path class="d" d="M-272.969-68.7h32.411v21.791h-32.825Z" transform="translate(581.771 143.509)"/><path class="e" d="M-247.5-67.957l-7.168,12.044-7.85-7.851-10.85,14.742h32.754V-61.571c-2.746-2.737-6.885-6.386-6.885-6.386Z" transform="translate(581.824 145.617)"/><path class="f" d="M-274.073-69.842l-.483,30.963h41.375V-69.842Zm2.005,2.033h36.937v27.467H-272.5Z" transform="translate(377.105 190.917)"/><path class="g" d="M-218.876-60.968s-38.47-.836-39.585,36.8c-.836,30.943-7.806,144.96,27.6,151.651,10.593,2.788,21.187-11.43,43.488-6.133,23.138,4.46,42.373-6.69,42.652-34.01C-145.559,69.217-184.03,13.184-188.49-.2s-30.386-60.772-30.386-60.772Z" transform="translate(419.371 215.927)"/><path class="h" d="M-229.875-60.189s-10.546.985-7.786,19.514,4.891,42.04,5.31,53.888-1.115,35.264,14.914,38.749c14.5,2.927,35.961-.558,40.282,2.788S-158.417,97.013-159.4,98.59s-6.7,20.5-33.905,16.164c-21.683-4.14-32.131,5.717-38.242,6.111-5.33.344-17.707-.519-25.754-19.841,4.333,13.23,10.724,22.486,20.074,24.253,10.593,2.788,21.187-11.43,43.488-6.133,23.138,4.46,42.373-6.69,42.652-34.01-.836-18.12-39.307-74.153-43.767-87.534-3.7-11.094-21.371-44.108-27.57-55.567a44.379,44.379,0,0,0-7.448-2.224Z" transform="translate(425.738 218.129)"/><path class="i" d="M-229.439-60.3c-.7.139-21.6,1.812-28.713,21.187-.558,5.018,5.436,4.042,8.921.279s11.569-18.12,22.162-18.678c6.133-1.254,2.788-4.042-2.37-2.788Z" transform="translate(423.244 216.929)"/><path class="h" d="M-226.727-60.562S-258.069-49.72-255.9-21.532c3.745,22.472,8.082,73.92,16.952,76.483s55,13.6,63.473-5.716C-167,29.719-222.327-62.126-226.727-60.562Z" transform="translate(429.391 217.023)"/><path class="j" d="M-203.422-19.89a54.937,54.937,0,0,0-11.251,1.721c.047.1.105.216.146.314-2.021,5.994-12.2,5.088-12.2,5.088l-.292-.49c-.365,2.582-.608,8.55,4.473,10.874,3.554,1.464,9.757-4.391,13.451-5.157s12.881-3.213,12.684-9.225c-.216-2.458-3.241-3.2-7.015-3.123Z" transform="translate(510.641 331.714)"/><path class="k" d="M-222.756-18.352s9.141-2.045,13.207-1.207c3.647.838-1.6,1.823-6.677,2.562s-10,2.242-6.53-1.355Z" transform="translate(519.841 332.091)"/><path class="l" d="M-196.435-18.962c-22.7,4-19.665,7.711-22.935,8.091s-2.542-4.36-2.478-4.748a22.441,22.441,0,0,1-4.874.222l-.292-.49c-.365,2.582-.608,8.55,4.473,10.874,3.554,1.464,9.757-4.391,13.451-5.157,3.6-.748,12.4-3.1,12.656-8.792Z" transform="translate(510.64 334.342)"/><path class="j" d="M-202.386-27.044a51.5,51.5,0,0,0-10.286,1.533l1.021,2.1s-5.227,5.088-11.22,3.066a17.754,17.754,0,0,1-1.292-1.749l-.675.213s-2.21,8.771,4.084,11.65c3.415,1.406,9.375-4.218,12.924-4.955s12.375-3.088,12.185-8.864c-.207-2.361-3.115-3.072-6.741-3Z" transform="translate(516.197 311.548)"/><path class="k" d="M-211.643-27.044a51.5,51.5,0,0,0-10.286,1.533l.81,1.668c3.957-.461,10.783-1.7,11.4-2.77.112-.2-.067-.324-.436-.407-.479-.024-.972-.034-1.485-.024Z" transform="translate(525.454 311.549)"/><path class="l" d="M-195.673-26.146c-18.625,2.214-19.5,6.864-21.343,7.721-1.951.906-2.927-3.9-2.927-3.9l-.1-.1a9.1,9.1,0,0,1-2.831-.46,17.764,17.764,0,0,1-1.291-1.749l-.675.213s-2.21,8.771,4.084,11.65c3.415,1.406,9.375-4.218,12.924-4.955,3.454-.717,11.884-2.974,12.157-8.42Z" transform="translate(516.196 314.093)"/><path class="m" d="M-241.479-41.59s-2.43,22.685,11.707,25.775c13.033,2.649,27.024-6.215,30.889,7.25,3.534,11.037,16.76,28.473,18.322,28.317s15.464-8.272,15.464-8.272l-22.337-40.894s-10.032-17.018-54.046-12.175Z" transform="translate(469.899 268.112)"/><path class="n" d="M-241.8-60.054a57.507,57.507,0,0,0-9.2,5.671c-1.164,2.892-1.737,7.122-.812,13.326,2.76,18.529,4.891,42.04,5.31,53.888S-247.626,48.1-231.6,51.581c14.212,2.87,35.111-.419,40,2.6a14.776,14.776,0,0,0,5.617-6.436C-178.9,31.428-216.41-35.439-231.464-56A46.973,46.973,0,0,0-241.8-60.054Z" transform="translate(439.898 218.51)"/><path class="o" d="M-234.237-27.841c1.615-.164,3.324-.363,4.8-.416a21.8,21.8,0,0,1,3.97.168,10.4,10.4,0,0,1,3.411,1.072,8.117,8.117,0,0,1,2.722,2.372,12.62,12.62,0,0,1,1.9,4.07,53.372,53.372,0,0,0,4.134,9.1c1.761,3.184,3.8,6.394,5.767,9.254s3.88,5.369,5.395,7.154,2.635,2.846,3.025,2.807c.238-.024,1.816-.944,2.535-1.281-.958-2.161-17.884-40.027-31.024-44.091-7.859-2.431-8.389,3.359-6.643,9.79Z" transform="translate(488.444 280.123)"/><path class="p" d="M-250.719-40.988s4.238-31.145,33.609-20.4c9.856,3.548,21.092,38.438,22.275,85.156-12.024,3.351-47.506,3.154-47.506,3.154S-253.774-36.75-250.719-40.988Z" transform="translate(442.837 208.389)"/><path class="p" d="M-244.1-58.743s-3.595,8.174-7,15.877c1.865,19.583,8.4,55.972,8.4,55.972s35.482.2,47.506-3.154c-.246-9.719-.941-18.894-1.958-27.4h.015c-.112-.942-.238-1.856-.357-2.781a.118.118,0,0,1,0-.018.067.067,0,0,1,0-.011c-.739-5.7-1.615-11.094-2.62-16.082-.034.091-.07.168-.1.272-2.267,7.392-10.053,8.475-20.2,7.194-7.479-.944-8.8,2.012-8.982,3.637a5.226,5.226,0,0,1-.889-.185c-3.066-31.78-13.8-33.313-13.8-33.313Z" transform="translate(443.207 222.205)"/><path class="m" d="M-248.76-39.121s-3.067,28.649,14.774,32.551c16.447,3.345,39.028-6.969,43.906,10.036,4.46,13.938,16.225,35.078,18.2,34.881S-152.368,27.9-152.368,27.9l-28.188-51.645s-12.66-21.492-68.2-15.375Z" transform="translate(449.256 274.43)"/><path class="o" d="M-243.3-40.206c6.057,3.174,26.474,10.542,35.155,14.263,8.846,3.791,32.976,47.949,37.018,55.434,1.688-.971,2.8-1.62,2.8-1.62l-28.188-51.646S-205.813-39.5-243.3-40.206Z" transform="translate(465.214 274.459)"/><path class="p" d="M-250.87-52.472c1.113,8.936,2.7,19.252,4.138,28.119,2.262,3.882,5.036,7.461,7.466,7.1,3.671-.546,29.269-3.385,42.6-5.933q-.329-4.287-.767-8.387a34.259,34.259,0,0,0-5.388,1.287C-216.2-26.1-237.8-21.644-240.033-23.316c-1.819-1.364-8.382-21.485-10.837-29.155Z" transform="translate(443.874 239.883)"/><path class="m" d="M-235.268-40.189c-4.194.147-8.671.46-13.492.991,0,0-3.066,28.648,14.775,32.551,16.447,3.345,39.028-6.969,43.906,10.036,4.46,13.938,16.225,35.078,18.2,34.881.837-.084,4.5-1.994,8.413-4.149a247.194,247.194,0,0,1-13.736-27c-10.644-23.063-31.342-22.273-44.943-20.7-10.949,1.269-12.8-18.328-13.12-26.616Z" transform="translate(449.256 274.508)"/><path class="q" d="M-164.72-56.736-248.908,7.446h125.446l44.6-63.9Z" transform="translate(449.404 227.863)"/><path class="r" d="M-215.227-41.663c-3.162.318-10.421-3.1-10.776,2.363.344,2.31,2.84,1.776,2.853,1.773a4.88,4.88,0,0,0,3.9,1.7c10.071,1.185,10.7-5.854,10.14-7.457-.209-.6-4.245,1.559-6.116,1.618Z" transform="translate(513.971 265.493)"/><path class="r" d="M-233.167-29.789l-3.624,4.042h60.632l8.5-25.368Z" transform="translate(483.562 243.708)"/><path class="r" d="M-195.493-30.784h-40.422l27.041-20.768,38.61.418Z" transform="translate(486.031 242.473)"/><path class="s" d="M-196.566-51.079H-214.5l-17.938,15.671h27.893Z" transform="translate(495.82 243.81)"/><path class="t" d="M-225.925-53.456c-3.3.2-6.733,2.822-7.093,3.1l-.536,5.214a6.129,6.129,0,0,1,4.343.2c3.351,1.183,10.644-1.478,12.024-1.675s-1.774-2.761-5.519-5.915a4.492,4.492,0,0,0-3.219-.93Z" transform="translate(492.687 237.075)"/><path class="p" d="M-237.922-53.378l17.353,1.464-1.185,11.5h-13.66S-237.574-53.1-237.922-53.378Z" transform="translate(480.372 237.329)"/><path class="p" d="M-237.891-53.281c.122.4.3,1.2.516,2.287,5.084.409,16.3,1.245,16.195.621-.139-.8,1.15-1.289-.767-1.429C-223.725-51.932-235.646-53.154-237.891-53.281Z" transform="translate(480.461 237.601)"/><path class="p" d="M-237.476-51.182c.373,2.107.806,4.576.806,4.576h13.66l.436-4.234c-7.872,1.662-12.994.337-14.9-.342Z" transform="translate(481.63 243.52)"/><path class="t" d="M-215.474-69.609s-8.673,29.765-31.934,11.433c-4.139-5.322,9.856-.2,5.717-9.462C-243.268-73.946-224.541-58.57-215.474-69.609Z" transform="translate(451.451 191.574)"/><path class="t" d="M-245.374-65.8c-.023.016-.048.029-.071.046,0,0-3.206,13.381-1.115,14.357S-237.5-45.4-232.2-54.6a15.007,15.007,0,0,0,.278-8.5s-.084-.143-.239-.372c-3.6,1.042-7.98.642-13.209-2.322Z" transform="translate(454.026 202.314)"/><path class="u" d="M-225.968-75.1a32.932,32.932,0,0,0-9,1.559c-8.279.591-24.246,11.926-8.18,29.371.082.058.171.106.255.161-.751-3.109,10.167.182,6.447-8.143-1.56-6.241,16.776,8.776,25.947-1.592,0-.029.27-.351.27-.38,0,0,2.2-21.223-15.735-20.977Z" transform="translate(446.211 176.089)"/><path class="p" d="M-243.379-58.656s-8.921-2.091-7.666,11.29,3.485,44.743,15.332,45.3c9.06.418,40-8.084,39.585-12.126a69.5,69.5,0,0,0-1.951-9.478s-31.64.418-34.707.836C-233.344-23.531-232.089-57.68-243.379-58.656Z" transform="translate(443.038 222.117)"/><path class="v" d="M-231.777-52.878c-.658.423-1.124.771-1.241.863l-.536,5.214a6.129,6.129,0,0,1,4.343.2c3.351,1.182,10.644-1.478,12.024-1.675.371-.052.395-.289.187-.649a5.444,5.444,0,0,1-4.245-.394c-3.136-1.289-9.513.034-10.419-.034-.708-.055-.321-2.455-.114-3.528Z" transform="translate(492.687 238.737)"/><path class="t" d="M-237.263-43.527l10.794.409,2.509-8.572s18.608-.279,18.956,1.812-6.69,3-7.109,4.739-.418,10.454-6.412,10.524-16.936-.545-16.936-.545Z" transform="translate(482.231 242.052)"/><path class="w" d="M-222.4-44.459l28.156-17.423L-200.1-22.018-225.33-1.668Z" transform="translate(515.868 213.356)"/><path class="s" d="M-235.915-46.115v2.509h40.408l.011-2.509Z" transform="translate(486.031 257.803)"/><path class="x" d="M-194.247-61.882l-.042.026-31,59.6-.038.586,25.229-20.35Z" transform="translate(515.868 213.356)"/><path class="y" d="M-225.32-31.093l25.229-20.35v1.368l-25.242,21.491Z" transform="translate(515.858 242.782)"/><path class="x" d="M-220.512-37.41V73.471h11.987V-37.41Z" transform="translate(529.449 282.342)"/><path class="x" d="M-245.769-37.41V73.471h11.987V-37.41Z" transform="translate(458.252 282.342)"/><path class="z" d="M-224.975-38.489c-2.412.04-4.007.88-2.714,1.988,2,1.712,21.157,35.55,22.528,37.974C-203.987.8-203.116.291-203.116.291l-21.162-38.745c-.231-.011-.477-.038-.7-.034Z" transform="translate(507.919 279.3)"/><path class="aa" d="M-248.908-39.929v9.623h125.682l-.237-9.623Z" transform="translate(449.404 275.239)"/><path class="s" d="M-216.06,7.24l44.6-63.9v8.019l-44.367,65.506Z" transform="translate(542.001 228.069)"/><path class="x" d="M-196.818-54.563l-10.245,15.128V43.555h10.245Z" transform="translate(567.363 233.988)"/><path class="t" d="M-216.78-21.507c-3.877,2.2-8.5,4.78-11.395,6.168l4.243,7.113s10.175.906,12.2-5.088a55.36,55.36,0,0,0-5.044-8.193Z" transform="translate(507.85 327.171)"/><path class="v" d="M-216.78-21.507c-3.877,2.2-8.5,4.78-11.395,6.168l4.243,7.113a22.481,22.481,0,0,0,4.854-.22c-1.474-1.923-4.618-4.71-4.715-5.774-.118-1.294,5.836-4.994,7.786-6.172-.264-.38-.542-.788-.773-1.115Z" transform="translate(507.85 327.171)"/><path class="t" d="M-214.686-27.816c-3.32,1.9-8.093,4.582-10.582,5.737a20.907,20.907,0,0,0,2.553,3.9c5.994,2.021,11.22-3.066,11.22-3.066Z" transform="translate(516.042 309.386)"/><path class="v" d="M-214.686-27.816c-3.32,1.9-8.093,4.582-10.582,5.737a20.907,20.907,0,0,0,2.553,3.9,8.942,8.942,0,0,0,2.77.46c-1.943-4.908,3.356-7.713,5.889-8.8Z" transform="translate(516.042 309.386)"/><path class="ab" d="M-212.19-46.906c-10.663.209-11.708,4.321-11.708,4.321a8.768,8.768,0,0,0,.647,3.3c-1.427-.125-3.013.137-3.2,1.919-.148,3.2,3.154,6.16,4.78,5.569,1.065-.387,1.721-.236,2.039-.632a5.431,5.431,0,0,0,3.539,2.043c10.454.836,10.872-9.06,11.5-11.987.7-2.857-3.972-4.739-7.6-4.53Zm-11.6,9.217a3.607,3.607,0,0,1,1.233.2c.675,2.451,1.611,3.157,1.611,3.644-2.366,1.583-4.084-1.344-4.051-2.494a1.162,1.162,0,0,1,1.207-1.346Z" transform="translate(512.694 255.528)"/><path class="ac" d="M-225.422-43.265a26.741,26.741,0,0,0,16.361-.838C-209.357-44.99-217.691-49.617-225.422-43.265Z" transform="translate(515.608 256.546)"/><path class="v" d="M-246.5-65.8c-.023.016-.048.029-.071.046,0,0-.17.761-.294,1.318a45.949,45.949,0,0,1,6.7,5.967,8.556,8.556,0,0,0,7.111,2.866,15.26,15.26,0,0,0,0-7.5s-.084-.143-.239-.372c-3.6,1.042-7.98.642-13.209-2.322Z" transform="translate(455.155 202.314)"/><path class="ad" d="M-230.886-69.609a11.111,11.111,0,0,1-2.677,2.376,27.436,27.436,0,0,1-9.151,13.594C-234.339-57.789-230.886-69.609-230.886-69.609Z" transform="translate(466.864 191.575)"/><path class="u" d="M-242.364-73.944c-.151,0-.3.019-.442.028-6.846,4.482-11.944,13.889-.346,26.483.082.058.171.106.255.161-.751-3.109,10.167.182,6.447-8.143-1.56-6.241,16.776,8.776,25.947-1.592,0-.029.269-.35.27-.379a28.258,28.258,0,0,0,.038-3.683c-2.562,7.072-13.052,5.783-22.413,2.6-9.56-3.252-6.208,1.675-10.643,1.183-6.5-.788.887-16.656.887-16.656Z" transform="translate(446.211 179.352)"/><path class="p" d="M-250.736-57.421a18.41,18.41,0,0,0-.311,6.24c1.254,13.381,3.485,44.743,15.332,45.3,9.06.418,40-8.084,39.585-12.126-.133-1.284-.384-2.67-.658-4.016-5.964,4.059-27.42,10.042-37.255,10.707-12.031.957-16.525-44.359-16.694-46.1Z" transform="translate(443.04 225.933)"/><path class="p" d="M-240-25.785s1.066-31.1-8-32.286c-4.238-.2,3.253,10.152,3.45,18.135S-240.968-23.362-240-25.785Z" transform="translate(448.302 224.092)"/><path class="p" d="M-245.952-48.613s31.78-1.185,31.919-.279S-245.185-44.5-245.952-48.613Z" transform="translate(457.738 249.012)"/><path class="p" d="M-249.732-52.708s5.349-10.578,9.391-9.149c3.31,1.6,1.788,1.723-.662,3-3.731,2.851-10.3,7.755-8.729,6.152Z" transform="translate(446.412 213.053)"/><path class="v" d="M-205.991-51.307c-1.642,1.19-7.638,2.59-9.641,4.027-2.267,1.626-.889,3.5-2.465,6.651-1.464,2.927-16.64,1.118-18.891.834l.758,3.522s10.942.614,16.935.545,5.994-8.781,6.412-10.524,7.457-2.648,7.109-4.739a.562.562,0,0,0-.216-.316Z" transform="translate(483.002 243.166)"/><path class="v" d="M-232.175-51.571s5.157,2.2,4.809,3.589-3.659,5.541-5.122,5.157-1.986.139-1.6-1.15,1.394-7.492,1.916-7.6Z" transform="translate(490.829 242.422)"/><path class="ad" d="M-233.52-51.646s13.4.222,16.657,1.207c.838.37-3.154.616-4.928.419s-9.955.271-11.729-1.626Z" transform="translate(492.782 242.209)"/><path class="ad" d="M-232.515-51.675s3.066-2.387,6.359-1.516c.941.279,5.889,4.408,5.488,4.5a5.477,5.477,0,0,1-3.885-1.551c-1.185-1.359-1.795-2.631-3.572-2.16S-234.031-50.334-232.515-51.675Z" transform="translate(494.689 237.316)"/><path class="q" d="M-216.594-46.739a11.935,11.935,0,0,0-9.043,3.635l.812.338h.015c7.72-6.332,16.033-1.729,16.347-.834a.929.929,0,0,0,.407-.055c-.679-1.655-4.46-2.822-7.283-3.032q-.65-.052-1.259-.052Z" transform="translate(515.003 256.041)"/><path class="ae" d="M-223.817-45.562c-.209-.016-.428.136-.675.462.052.252.113.517.192.817,0,0,0,.011,0,.011.137.478.335,1.13.588,1.877-.992-.153-2.969-.148-2.389,2.529.3,1.749,2.514,4.584,4.436,2.711-.011-.095-.064-.3-.1-.46-2.308,1.418-3.973-1.425-3.94-2.557a1.162,1.162,0,0,1,1.207-1.346,3.607,3.607,0,0,1,1.233.2c.649,2.356,1.53,3.1,1.6,3.583a8.76,8.76,0,0,0,1.154,1.6.625.625,0,0,0,.172-.12,5.431,5.431,0,0,0,3.539,2.043,9.9,9.9,0,0,0,6.862-1.612c-.5.211-6.132,2.5-9.384-2.313-2.763-4.084-3.554-7.348-4.5-7.42Z" transform="translate(513.401 259.357)"/><path class="p" d="M-238.376-62.254s12.911,14.784,13.207,34.792c-.395,4.14-2.267,7.491-4.632,3.055s.395-5.519-3.253-12.714-17.149-18.726-5.322-25.133Z" transform="translate(465.681 212.309)"/></g></g></svg>