<svg xmlns="http://www.w3.org/2000/svg" width="518.884" height="379.657" viewBox="0 0 518.884 379.657"><defs><style>.a{fill:#ff6b31;}.a,.aa,.ab,.ac,.c,.d{stroke:#000;}.a,.aa,.o,.p,.q,.r,.u,.v{stroke-linecap:round;stroke-linejoin:round;}.a,.d{stroke-width:4.101px;}.ae,.b,.f,.j,.y{fill:#fff;}.ab,.c{fill:#ffc6b1;}.c{stroke-width:4.102px;}.ab,.ad,.ae,.af,.ag,.ah,.ai,.c,.e,.f,.g,.h,.i,.j,.k,.l,.m,.n,.s,.t,.u,.w,.x,.y,.z{fill-rule:evenodd;}.af,.e{fill:#ff8080;}.e,.f,.g,.h,.i,.j,.k,.l,.m,.n{stroke:#383838;}.e{stroke-width:7.53px;}.f{stroke-width:8.131px;}.ad,.ag,.ai,.g,.i,.l,.n,.w,.x{fill:#fca;}.g{stroke-width:9.178px;}.h{fill:#d38d5f;stroke-width:9.533px;}.i{stroke-width:7.012px;}.j{stroke-width:7.045px;}.k{fill:blue;stroke-width:6.427px;}.l{stroke-width:8.586px;}.ah,.m,.z{fill:#918a6f;}.m{stroke-width:7.025px;}.n{stroke-width:6.261px;}.o,.q{fill:#666;}.o,.p,.q{stroke:#999;}.o{stroke-width:3.139px;}.p{fill:gray;stroke-width:3.813px;}.q{stroke-width:3.328px;}.r{fill:#ac9393;}.r,.v{stroke:#806600;}.r,.u,.v{stroke-width:3.543px;}.s{fill:#353564;}.t{fill:#e9e9ff;}.u{fill:#965c36;stroke:#ac9393;}.v{fill:#5a3f2a;}.ad,.ae,.af,.ag,.ah,.ai,.w,.x,.y,.z{stroke:#001a37;}.w{stroke-width:12.127px;}.x{stroke-width:8.843px;}.y{stroke-width:9.95px;}.z{stroke-width:11.417px;}.aa{fill:#ffd24a;}.aa,.ac{stroke-width:5.583px;}.ab{stroke-width:5.583px;}.ac{fill:#845000;}.ad{stroke-width:9.065px;}.ae{stroke-width:10.199px;}.af{stroke-width:9.306px;}.ag{stroke-width:12.431px;}.ah,.ai{stroke-width:11.703px;}</style></defs><g transform="translate(-209.425 -124.739)"><g transform="translate(578.833 276.639) rotate(180)"><path class="a" d="M59.641,44.742C32.562,82.066,1.49,49.564,0,3.971,6.725-1,13.65-2.66,18.131,7.11c10.534-8.35,49.525-6.271,62.182.9C82.646,4.782,84.746-5.86,99.14,4.6c-1.119,44.961-27.505,85.528-39.5,40.14Z" transform="translate(0)"/><path class="b" d="M23.509,11.138C23.509,4.987,18.247,0,11.755,0S0,4.987,0,11.138,5.263,22.276,11.755,22.276,23.509,17.29,23.509,11.138Z" transform="translate(18.357 27.001)"/><path class="c" d="M82.083,43.179C82.083,19.331,63.708,0,41.042,0S0,19.332,0,43.179,18.375,86.357,41.042,86.357,82.083,67.025,82.083,43.179Z" transform="translate(9.57 56.578)"/><path class="d" d="M.074.632c43.383-4.317,7.955,14.3,30.752,30.752,17.449-5.277,29.161,8.1,47.774-5.491l8.237,11.532C33.045,71.894-1.853,39.653.076.632Z" transform="translate(6.09 97.727)"/></g><g transform="translate(707.742 319.368) rotate(180)"><path class="e" d="M45.255,87.508C15.239,86.566-8.306,32.24,2.8,13.817s76.256-18.423,86.87,0S76.248,88.481,45.255,87.508Z" transform="translate(5.628 0)"/><path class="f" d="M0,54.943H50.034S50.832,0,33,0C16.234,0,0,54.943,0,54.943Z" transform="translate(28.542 21.471)"/><path class="g" d="M74.668,46.072C74.668,20.627,57.953,0,37.334,0S0,20.627,0,46.072,16.715,92.143,37.334,92.143c20.5,0,37.167-20.4,37.333-45.7" transform="translate(16.294 53.252)"/><path class="h" d="M39.648,29.922s17.364-20.286,35.186-18.7A62.488,62.488,0,0,1,104.707,22S95.5,77.458,54.375,78.376C22.179,79.121,6.325,44.961,1.626,22-3.133-1.264,3.4-1.176,10.353.806S39.648,29.922,39.648,29.922Z" transform="translate(0 82.517)"/><path class="i" d="M28.236,27.066C32.787,20.3,30.617,9.989,23.393,4.051S6.608-1.219,2.056,5.545l-.068.1c-2.657,4.028-3.134,21.311,1.6,24.916,5.206,3.969,20.1,3.268,24.652-3.5Z" transform="translate(83.062 16.324)"/></g><g transform="translate(303.354 128.251)"><path class="j" d="M432.68,603.444c-29.522.838-52.679,49.181-41.758,65.575s75,16.394,85.439,0-13.2-66.44-43.681-65.575Z" transform="translate(-388.159 -543.634)"/><path class="k" d="M484.5,660.636l6.978,7.25-3.942,23.372,17.175,9.884,6.427-15.663-12.208-18.785,2.583-9.815L484.5,660.636Z" transform="translate(-437.769 -571.159)"/><path class="l" d="M73.439,41C73.439,18.355,57,0,36.719,0S0,18.355,0,41,16.44,82,36.719,82C56.883,82,73.275,63.842,73.438,41.33" transform="translate(83.938 90.297) rotate(180)"/><path class="m" d="M413.984,511.833s14.084,12.442,29.86,11.472c15.8-.972,31.6-6.61,31.6-6.61s.874-35.992-40.69-36.556c-28.505-.395-39.963,12.667-45.409,36.556-5.5,24.138,9.706,38.3,9.706,38.3a53.918,53.918,0,0,0,11.819-18.666c3.732-10.792,3.111-24.5,3.111-24.5Z" transform="translate(-388.148 -480.13)"/><path class="n" d="M559.042,663.789c9.018-1.969,15.1,1.431,15.1,8.59s-.7,12.871-14.029,12.635c-12.394-.22-12.271-7.942-12.271-15.1v-.107c.04-4.234.478-20.769,7.3-20.6,7.3.18,6.288,5.729,3.908,14.583Z" transform="translate(-470.392 -567.208)"/></g><path class="o" d="M3.133,0H10.75a3.133,3.133,0,0,1,3.133,3.133v99.692a3.133,3.133,0,0,1-3.133,3.133H3.133A3.133,3.133,0,0,1,0,102.825V3.133A3.133,3.133,0,0,1,3.133,0" transform="translate(297.664 271.704) rotate(-1.911)"/><path class="p" d="M3.807,0h9.254a3.807,3.807,0,0,1,3.807,3.807V124.93a3.807,3.807,0,0,1-3.807,3.807H3.807A3.807,3.807,0,0,1,0,124.93V3.807A3.807,3.807,0,0,1,3.807,0" transform="translate(519.319 373.371) rotate(1.262)"/><path class="q" d="M3.322,0H11.4a3.322,3.322,0,0,1,3.322,3.322V109.038A3.322,3.322,0,0,1,11.4,112.36H3.322A3.322,3.322,0,0,1,0,109.038V3.322A3.322,3.322,0,0,1,3.322,0" transform="translate(649.846 330.873) rotate(4.363)"/><g transform="translate(279.201 226.878)"><path class="r" d="M547.36,99.68,803.127,223.66l151.7-77.907L707.305,50.14Z" transform="translate(-547.36 -43.26)"/><path class="s" d="M547.36,92.376V84.5L707.305,35.958v6.871Z" transform="translate(-547.36 -35.956)"/><path class="t" d="M877.16,42.829l247.518,95.613v-8.189L877.16,35.954Z" transform="translate(-717.215 -35.954)"/><path class="u" d="M547.36,84.5,803.127,206.7l151.7-76.437L707.305,35.96Z" transform="translate(-547.36 -35.957)"/><path class="v" d="M1074.7,316.5v-9.658L1226.4,230.4v8.189Z" transform="translate(-818.952 -136.101)"/><path class="v" d="M547.36,143.929,803.127,267.908V258.25L547.36,136.055Z" transform="translate(-547.36 -87.508)"/></g><g transform="translate(215.019 238.372)"><path class="w" d="M935.9,727.75c16.186-26.386,48.465-33.126,72.1-15.055s29.669,54.112,13.484,80.5-48.465,33.126-72.1,15.056c-19.886-15.207-27.769-43.707-19.024-68.786" transform="translate(-912.016 -691.333)"/><path class="x" d="M2408.383-25.686c4.511-.823,8.346-31,27.836-25.654,19.89,5.453,12.658,24.038,8.831,34.522-3.578,9.8-11.976,25.853-30.652,19.61-16.218-5.421-25.573-35.084-18.2-36.873,7.781-1.888,7.672,9.218,12.183,8.394Z" transform="translate(-2286.743 167.54)"/><path class="y" d="M2236.087-117.08c-41.7,1.184-74.407,69.466-58.982,92.622s105.934,23.155,120.679,0S2279.142-118.3,2236.087-117.08Z" transform="translate(-2173.219 201.079)"/><path class="z" d="M2252.726-164.335c9.96.726,31.038-37.207,23.709-44.355s22.382-36.574,22.382-36.574-10.177-40.664-42.583-44.278c-32.358-3.609-69.834,5.617-80.277,42.368-10.566,37.181,17.458,62.208,17.458,62.208,14.367,14.881,15.331,14.626,25.285,16.674a329.583,329.583,0,0,0,34.025,3.959Z" transform="translate(-2173.403 290.266)"/></g><g transform="translate(369.039 304.377)"><path class="aa" d="M173.147,295.016c-39.44-14.7-77.441,12.347-79.466,74.412,9.154,6.763,18.582,9.026,24.681-4.273,14.339,11.366,67.417,8.537,84.647-1.23,3.176,4.4,6.035,18.886,25.629,4.644-1.523-61.2-15.951-109.552-55.491-73.551Z" transform="translate(-93.681 -177.957)"/><path class="b" d="M443.759,848.025c0,8.374-7.164,15.162-16,15.162s-16-6.788-16-15.162,7.164-15.162,16-15.162S443.759,839.651,443.759,848.025Z" transform="translate(-386.771 -703.067)"/><path class="ab" d="M269.478,124.653c0,32.464-25.014,58.778-55.869,58.778s-55.869-26.316-55.869-58.778,25.014-58.778,55.869-58.778,55.869,26.316,55.869,58.778Z" transform="translate(-144.715 -63.573)"/><path class="ac" d="M99.556,170.839c19.684,2.248,29.913,19.864,49.6,10.352,22.608,13.569,44.9-7.578,39.879,2.541l51.242-28.105C230.435,17.583,78.24,54.183,99.556,170.839Z" transform="translate(-95.654 -66.745)"/></g><g transform="translate(551.552 283.739)"><path class="ad" d="M997.885,717.819c-4.739-.823-8.768-31-29.244-25.658-20.9,5.454-13.3,24.042-9.278,34.528,3.759,9.8,12.582,25.857,32.2,19.613,17.037-5.422,26.866-35.089,19.118-36.879-8.174-1.888-8.059,9.219-12.8,8.4Z" transform="translate(-954.649 -575.943)"/><path class="ae" d="M1098.315,626.413c43.807,1.184,78.169,69.478,61.966,92.635s-111.288,23.159-126.783,0S1053.084,625.191,1098.315,626.413Z" transform="translate(-993.341 -542.4)"/><path class="af" d="M1084.611,671.463,1074.257,681.7l-19.092,22.625-11.975,19.159,3.281-25.937c7.223-8.2,10.691-8.685,16.73-17.531l-3.833-13.865Z" transform="translate(-1000.249 -562.875)"/><path class="ag" d="M9.537,90.651c17,26.391,50.914,33.132,75.742,15.058S116.448,51.588,99.445,25.2,48.531-7.936,23.7,10.138C2.811,25.348-5.47,53.853,3.718,78.936" transform="translate(155.478 127.082) rotate(180)"/><path class="ah" d="M1093.806,509.568s5.62,3.262-16.706,3.262c-21,0-41.483-14.622-41.483-14.622s10.691-40.671,44.735-44.286c33.993-3.609,73.363,5.617,84.338,42.374,11.1,37.187-18.341,62.218-18.341,62.218l-41.429,4.528-5.674-26.029Z" transform="translate(-996.349 -453.198)"/><path class="ai" d="M1142.5,597.377c4.268-11.51,18.609-7.586,19.412,5.157.915,14.52-18.148,16.979-18.148,16.979" transform="translate(-1051.396 -523.936)"/></g></g></svg>