<svg xmlns="http://www.w3.org/2000/svg" width="65.616" height="56.389" viewBox="0 0 65.616 56.389"><defs><style>.a{fill:#2690fb;stroke:#fff;stroke-width:1.031px;}</style></defs><g transform="translate(187.908 198.396)"><path class="a" d="M55.359,0H9.226A9.237,9.237,0,0,0,0,9.226V46.132a9.237,9.237,0,0,0,9.226,9.226H55.359a9.237,9.237,0,0,0,9.226-9.226V9.226A9.237,9.237,0,0,0,55.359,0ZM43.826,9.226a6.92,6.92,0,1,1-6.92,6.92,6.92,6.92,0,0,1,6.92-6.92ZM9.226,50.746a4.613,4.613,0,0,1-4.613-4.613v-9.75L18.286,24.23a6.929,6.929,0,0,1,9.486.274l9.363,9.343-16.9,16.9Zm50.746-4.613a4.613,4.613,0,0,1-4.613,4.613h-28.6l17.5-17.5a6.879,6.879,0,0,1,8.886-.023l6.82,5.683Z" transform="translate(-187.392 -197.881)"/></g></svg>