<svg xmlns="http://www.w3.org/2000/svg" width="39.07" height="39.07" viewBox="0 0 39.07 39.07"><defs><style>.a{fill:#fff;}</style></defs><path class="a" d="M51.535,32A19.792,19.792,0,0,0,32,52.032a19.994,19.994,0,0,0,13.361,19,1.531,1.531,0,0,0,.331.035.945.945,0,0,0,1-.994c0-.48-.017-1.735-.026-3.41A8.929,8.929,0,0,1,44.7,66.9a4.539,4.539,0,0,1-4.613-2.922,5.29,5.29,0,0,0-2.172-2.93c-1.7-1.195-.009-1.23.122-1.23h.009A4.2,4.2,0,0,1,41.035,61.9a3.835,3.835,0,0,0,3.454,2.189,5.494,5.494,0,0,0,2.233-.523,4.328,4.328,0,0,1,1.238-2.677c-4.334-.506-8.9-2.224-8.9-9.9a7.84,7.84,0,0,1,2.006-5.372,7.374,7.374,0,0,1,.192-5.3,1.626,1.626,0,0,1,.436-.044c.706,0,2.3.27,4.936,2.1a18.158,18.158,0,0,1,9.785,0c2.634-1.831,4.23-2.1,4.936-2.1a1.626,1.626,0,0,1,.436.044,7.374,7.374,0,0,1,.192,5.3,7.873,7.873,0,0,1,2.006,5.372c0,7.692-4.57,9.384-8.922,9.881a4.857,4.857,0,0,1,1.326,3.706c0,2.677-.026,4.84-.026,5.494a.94.94,0,0,0,.994,1,1.688,1.688,0,0,0,.349-.035A20.1,20.1,0,0,0,51.535,32Z" transform="translate(-32 -32)"/></svg>