<svg xmlns="http://www.w3.org/2000/svg" width="235.555" height="200.023" viewBox="0 0 235.555 200.023"><defs><style>.a{fill:#f2f2f2;}.b{fill:#ccc;}.c{fill:#fff;}.d,.e{fill:#333;}.d{fill-rule:evenodd;}.f{fill:#ececec;}.g{fill:#4d4d4d;}.h{fill:#039be5;}.i{fill:#b3b3b3;}.j{fill:#f9f9f9;}.k{fill:#00628a;}.l{fill:#efe2d3;}.m,.o,.u,.v{fill:none;stroke:#1d1d1b;stroke-miterlimit:10;}.m{stroke-width:0.501px;}.n{fill:#1d1d1b;}.o{stroke-width:0.25px;}.p{fill:#935f36;}.q{fill:#28170b;}.r{fill:#be1622;}.s{fill:#9c7248;}.t{fill:#e30613;}.u{stroke-width:0.5px;}.v{stroke-width:0.261px;}.w{fill:#ebd21a;}</style></defs><g transform="translate(-0.127 -105.377)"><g transform="translate(-10.659 93.852)"><path class="a" d="M102.638,169.629l52.063,1.177,4.281,40.741H98.146Z"/><path class="b" d="M102.638,169.629l-1.36,12.685H155.91L154.7,170.807l-52.063-1.177Z"/><rect class="c" width="235.486" height="154.619" rx="10.722" transform="translate(10.821 24.776)"/><path class="d" d="M10.786,21.508V157.833H246.341V21.508Zm5.553,7.045H239.765L209.8,140.837l-167.434-11.2Z"/><rect class="e" width="235.538" height="64.909" rx="12.189" transform="translate(10.792 11.525)"/><rect class="f" width="216.502" height="124.745" transform="translate(20.313 21.882)"/><rect class="c" width="95.947" height="6.172" rx="1.784" transform="translate(80.59 205.376)"/><circle class="e" cx="6.053" cy="6.053" r="6.053" transform="translate(122.512 162.834)"/></g><rect class="g" width="216.856" height="124.951" transform="translate(9.624 115.701)"/><rect class="f" width="216.856" height="4.148" transform="translate(9.624 236.503)"/><rect class="h" width="216.856" height="5.93" transform="translate(9.624 115.701)"/><g transform="translate(3.802 41.595)"><rect class="c" width="1.931" height="1.964" transform="translate(6.87 75.155)"/><rect class="c" width="1.129" height="1.148" transform="translate(9.138 75.971)"/><rect class="c" width="1.464" height="1.489" transform="translate(9.138 77.423)"/></g><rect class="i" width="14.596" height="2.588" transform="translate(11.236 237.362)"/><rect class="i" width="2.597" height="2.588" transform="translate(222.259 237.362)"/><rect class="i" width="2.597" height="2.588" transform="translate(219.006 237.362)"/><g transform="translate(20.424 19.164)"><g transform="translate(11.797 23.813)"><rect class="j" width="46.835" height="46.835" transform="translate(36.753 86.123)"/><g transform="translate(-195.748 -207.207)"><g transform="translate(263.763 325.638)"><path class="k" d="M0,0C-.145,1.518-3.59,2.733-7.819,2.733s-7.687-1.219-7.82-2.742c-6.1,1.056-10.309,3.583-10.309,14.536H10.26C10.26,3.586,6.07,1.061,0,0"/></g><g transform="translate(255.944 328.371)"><path class="l" d="M0,0C4.229,0,7.674-1.215,7.819-2.733c-1.137-.2-2.966-.346-4.22-.446V-4.637c2.214-.208,6.835-6.245,6.811-12.045a12.966,12.966,0,0,0-.524-3.634C8.514-24.94,4.6-28.277-.026-28.277c-5.217,0-9.54,4.254-10.312,9.81a7.379,7.379,0,0,0-.123,1.784c.7,6.62,4.5,11.39,6.655,11.945v1.572c-1.18.1-2.939.239-4.015.425C-7.687-1.219-4.238,0,0,0"/></g><g transform="translate(244.735 311.48)"><path class="m" d="M0,0C0-6.886,5.024-12.468,11.221-12.468S22.443-6.886,22.443,0"/></g><g transform="translate(245.298 314.287)"><path class="n" d="M0,0A.593.593,0,0,1-.593.593H-.87A.593.593,0,0,1-1.463,0V-4.753A.593.593,0,0,1-.87-5.346h.278A.593.593,0,0,1,0-4.753Z"/></g><g transform="translate(267.947 314.287)"><path class="n" d="M0,0A.593.593,0,0,1-.593.593H-.87A.593.593,0,0,1-1.463,0V-4.753A.593.593,0,0,1-.87-5.346h.278A.593.593,0,0,1,0-4.753Z"/></g><g transform="translate(266.934 313.621)"><path class="o" d="M0,0C0,2.862-4.287,5.179-9.586,5.179"/></g><g transform="translate(259.358 319.189)"><path class="n" d="M0,0A.61.61,0,0,1-.61.61H-4A.611.611,0,0,1-4.608,0V-.374A.61.61,0,0,1-4-.985H-.61A.61.61,0,0,1,0-.374Z"/></g><g transform="translate(253.099 311.998)"><path class="n" d="M0,0A1.229,1.229,0,0,1-1.122,1.314,1.229,1.229,0,0,1-2.244,0,1.23,1.23,0,0,1-1.122-1.314,1.23,1.23,0,0,1,0,0"/></g><g transform="translate(261.368 311.998)"><path class="n" d="M0,0A1.229,1.229,0,0,1-1.122,1.314,1.229,1.229,0,0,1-2.244,0,1.229,1.229,0,0,1-1.122-1.314,1.23,1.23,0,0,1,0,0"/></g><g transform="translate(251.31 304.141)"><path class="p" d="M0,0A1.318,1.318,0,0,1-.068-.414,1.318,1.318,0,0,0,0,0Q.009-.168.009-.337.009-.167,0,0C.38,1.17,4.5,3.2,7.43,3.914,8.222,4.106,5.5,2.291,5.5,2.291S12.114,3.9,14.52,3.913C13.148-.71,9.229-4.047,4.608-4.047-.609-4.047-4.931.207-5.7,5.763A6.023,6.023,0,0,0,0,0"/></g><g transform="translate(251.988 311.002)"><path class="c" d="M0,0,.059.008.126.02A.279.279,0,0,1,.211.041a.853.853,0,0,1,.205.1.923.923,0,0,1,.192.18A.584.584,0,0,1,.677.441a.427.427,0,0,1,.051.12A.574.574,0,0,1,.757.79.46.46,0,0,1,.725.946C.713.983.7,1,.7,1S.7.98.7.942A.668.668,0,0,0,.686.794C.68.764.673.732.666.7S.637.634.626.6A.338.338,0,0,0,.574.5.5.5,0,0,0,.508.4.8.8,0,0,0,.349.231,1.382,1.382,0,0,0,.186.106.634.634,0,0,0,.11.063L.051.031,0,0"/></g><g transform="translate(260.264 311.002)"><path class="c" d="M0,0,.059.008.126.02A.277.277,0,0,1,.211.041a.851.851,0,0,1,.2.1.925.925,0,0,1,.193.18A.581.581,0,0,1,.678.442a.426.426,0,0,1,.051.12A.581.581,0,0,1,.757.79.44.44,0,0,1,.725.946C.713.983.7,1,.7,1S.7.98.7.942A.639.639,0,0,0,.686.794C.681.764.674.732.667.7S.637.634.626.6A.371.371,0,0,0,.575.5.526.526,0,0,0,.508.4.805.805,0,0,0,.349.231,1.288,1.288,0,0,0,.186.106.659.659,0,0,0,.111.063L.051.031,0,0"/></g></g></g><g transform="translate(63.115 23.813)"><g transform="translate(-195.748 -207.207)"><g transform="translate(263.763 325.638)"><path class="k" d="M0,0C-.145,1.518-3.59,2.733-7.819,2.733s-7.687-1.219-7.82-2.742c-6.1,1.056-10.309,3.583-10.309,14.536H10.26C10.26,3.586,6.07,1.061,0,0"/></g><g transform="translate(255.944 328.371)"><path class="l" d="M0,0C4.229,0,7.674-1.215,7.819-2.733c-1.137-.2-2.966-.346-4.22-.446V-4.637c2.214-.208,6.835-6.245,6.811-12.045a12.966,12.966,0,0,0-.524-3.634C8.514-24.94,4.6-28.277-.026-28.277c-5.217,0-9.54,4.254-10.312,9.81a7.379,7.379,0,0,0-.123,1.784c.7,6.62,4.5,11.39,6.655,11.945v1.572c-1.18.1-2.939.239-4.015.425C-7.687-1.219-4.238,0,0,0"/></g><g transform="translate(244.735 311.48)"><path class="m" d="M0,0C0-6.886,5.024-12.468,11.221-12.468S22.443-6.886,22.443,0"/></g><g transform="translate(245.298 314.287)"><path class="n" d="M0,0A.593.593,0,0,1-.593.593H-.87A.593.593,0,0,1-1.463,0V-4.753A.593.593,0,0,1-.87-5.346h.278A.593.593,0,0,1,0-4.753Z"/></g><g transform="translate(267.947 314.287)"><path class="n" d="M0,0A.593.593,0,0,1-.593.593H-.87A.593.593,0,0,1-1.463,0V-4.753A.593.593,0,0,1-.87-5.346h.278A.593.593,0,0,1,0-4.753Z"/></g><g transform="translate(266.934 313.621)"><path class="o" d="M0,0C0,2.862-4.287,5.179-9.586,5.179"/></g><g transform="translate(259.358 319.189)"><path class="n" d="M0,0A.61.61,0,0,1-.61.61H-4A.611.611,0,0,1-4.608,0V-.374A.61.61,0,0,1-4-.985H-.61A.61.61,0,0,1,0-.374Z"/></g><g transform="translate(253.099 311.998)"><path class="n" d="M0,0A1.229,1.229,0,0,1-1.122,1.314,1.229,1.229,0,0,1-2.244,0,1.23,1.23,0,0,1-1.122-1.314,1.23,1.23,0,0,1,0,0"/></g><g transform="translate(261.368 311.998)"><path class="n" d="M0,0A1.229,1.229,0,0,1-1.122,1.314,1.229,1.229,0,0,1-2.244,0,1.229,1.229,0,0,1-1.122-1.314,1.23,1.23,0,0,1,0,0"/></g><g transform="translate(251.31 304.141)"><path class="p" d="M0,0A1.318,1.318,0,0,1-.068-.414,1.318,1.318,0,0,0,0,0Q.009-.168.009-.337.009-.167,0,0C.38,1.17,4.5,3.2,7.43,3.914,8.222,4.106,5.5,2.291,5.5,2.291S12.114,3.9,14.52,3.913C13.148-.71,9.229-4.047,4.608-4.047-.609-4.047-4.931.207-5.7,5.763A6.023,6.023,0,0,0,0,0"/></g><g transform="translate(251.988 311.002)"><path class="c" d="M0,0,.059.008.126.02A.279.279,0,0,1,.211.041a.853.853,0,0,1,.205.1.923.923,0,0,1,.192.18A.584.584,0,0,1,.677.441a.427.427,0,0,1,.051.12A.574.574,0,0,1,.757.79.46.46,0,0,1,.725.946C.713.983.7,1,.7,1S.7.98.7.942A.668.668,0,0,0,.686.794C.68.764.673.732.666.7S.637.634.626.6A.338.338,0,0,0,.574.5.5.5,0,0,0,.508.4.8.8,0,0,0,.349.231,1.382,1.382,0,0,0,.186.106.634.634,0,0,0,.11.063L.051.031,0,0"/></g><g transform="translate(260.264 311.002)"><path class="c" d="M0,0,.059.008.126.02A.277.277,0,0,1,.211.041a.851.851,0,0,1,.2.1.925.925,0,0,1,.193.18A.581.581,0,0,1,.678.442a.426.426,0,0,1,.051.12A.581.581,0,0,1,.757.79.44.44,0,0,1,.725.946C.713.983.7,1,.7,1S.7.98.7.942A.639.639,0,0,0,.686.794C.681.764.674.732.667.7S.637.634.626.6A.371.371,0,0,0,.575.5.526.526,0,0,0,.508.4.805.805,0,0,0,.349.231,1.288,1.288,0,0,0,.186.106.659.659,0,0,0,.111.063L.051.031,0,0"/></g></g><rect class="j" width="46.835" height="46.835" transform="translate(36.753 86.123)"/><g transform="translate(-156.793 -128.948)"><g transform="translate(227.28 240.048)"><path class="q" d="M0,0C1.534,3.372-.111,7.419-.111,7.419S-4.241,6-5.775,2.627s.111-7.419.111-7.419S-1.533-3.372,0,0"/></g><g transform="translate(224.803 247.391)"><path class="r" d="M0,0C-.145,1.517-3.587,2.73-7.814,2.73s-7.681-1.218-7.813-2.739c-6.092,1.055-10.3,3.58-10.3,14.524H10.251C10.251,3.584,6.064,1.06,0,0"/></g><g transform="translate(216.989 250.122)"><path class="s" d="M0,0C4.227,0,7.669-1.214,7.814-2.73c-1.136-.2-2.964-.346-4.216-.445V-4.633c2.212-.208,6.829-6.24,6.8-12.035A12.954,12.954,0,0,0,9.878-20.3c-1.37-4.62-5.286-7.954-9.9-7.954-5.213,0-9.532,4.25-10.3,9.8a7.362,7.362,0,0,0-.123,1.782c.7,6.615,4.494,11.381,6.65,11.935v1.57c-1.179.1-2.937.239-4.012.424C-7.681-1.218-4.234,0,0,0"/></g><g transform="translate(214.147 233.762)"><path class="n" d="M0,0A1.228,1.228,0,0,1-1.121,1.313,1.228,1.228,0,0,1-2.242,0a1.228,1.228,0,0,1,1.12-1.313A1.229,1.229,0,0,1,0,0"/></g><g transform="translate(222.409 233.762)"><path class="n" d="M0,0A1.228,1.228,0,0,1-1.121,1.313,1.228,1.228,0,0,1-2.242,0,1.229,1.229,0,0,1-1.121-1.313,1.229,1.229,0,0,1,0,0"/></g><g transform="translate(211.58 226.163)"><path class="q" d="M0,0A1.587,1.587,0,0,1-.08-.487,1.587,1.587,0,0,0,0,0C.007-.131.011-.264.011-.4c0,.133,0,.265-.011.4A8.459,8.459,0,0,0,5.924,4.685c.931.226.541-1.991.541-1.991S13.972,7.209,16.8,7.223C15.187,1.786,13.719-4.56,5.419-4.759-4.225-4.99-4.769,2.32-5.678,8.854-2.068,8.708-.2,3.689,0,0"/></g><g transform="translate(213.037 232.768)"><path class="c" d="M0,0,.059.008.126.019A.279.279,0,0,1,.211.041a.857.857,0,0,1,.2.1.909.909,0,0,1,.193.18A.574.574,0,0,1,.677.441a.424.424,0,0,1,.051.12A.574.574,0,0,1,.756.789.43.43,0,0,1,.724.945C.712.982.7,1,.7,1S.7.98.7.941A.616.616,0,0,0,.686.793C.68.764.673.731.666.7S.637.633.626.6A.365.365,0,0,0,.575.5.536.536,0,0,0,.509.4.836.836,0,0,0,.349.231,1.356,1.356,0,0,0,.186.106.74.74,0,0,0,.111.063L.051.031,0,0"/></g><g transform="translate(221.306 232.768)"><path class="c" d="M0,0,.059.008.125.019A.279.279,0,0,1,.21.041a.86.86,0,0,1,.2.1.911.911,0,0,1,.192.18A.58.58,0,0,1,.676.441a.444.444,0,0,1,.051.12A.586.586,0,0,1,.756.789.465.465,0,0,1,.724.945C.712.982.7,1,.7,1S.7.98.7.941A.647.647,0,0,0,.685.793C.679.764.673.732.666.7S.636.633.625.6A.354.354,0,0,0,.574.5.514.514,0,0,0,.508.4.813.813,0,0,0,.349.231,1.389,1.389,0,0,0,.185.106.661.661,0,0,0,.11.063L.05.031,0,0"/></g><g transform="translate(220.791 239.449)"><path class="t" d="M0,0S-.068.112-.2.3C-.264.388-.353.5-.458.619A4.419,4.419,0,0,1-.848,1a3.491,3.491,0,0,1-.543.368c-.1.055-.211.113-.323.165s-.234.084-.355.127c-.061.02-.122.044-.184.062l-.191.039c-.128.026-.258.052-.39.075s-.264.025-.4.034l-.2.011-.1.006-.05,0h-.068c-.256-.017-.5-.019-.76-.052-.135-.022-.269-.046-.4-.072l-.2-.038-.185-.06c-.122-.041-.242-.079-.357-.122s-.221-.108-.325-.162L-6.026,1.3c-.047-.032-.094-.064-.138-.1l-.256-.188A4.033,4.033,0,0,1-6.808.632,3.848,3.848,0,0,1-7.061.3c-.127-.191-.19-.3-.19-.3s.114.067.3.192c.091.064.213.125.339.209A1.809,1.809,0,0,0-6.4.515c.075.037.15.081.23.123l.26.1L-5.779.8l.145.041.3.089c.106.017.211.04.319.06l.162.033.165.015q.165.014.332.037c.236.014.5.016.749.028l.693-.027c.114-.016.229-.028.342-.04l.169-.018.162-.034c.107-.022.212-.046.317-.064s.2-.064.3-.092l.145-.043c.047-.017.089-.039.134-.056l.26-.107C-.936.533-.78.462-.649.386S-.4.244-.306.183C-.115.062,0,0,0,0"/></g><g transform="translate(205.594 233.211)"><path class="u" d="M0,0C0-6.88,5.02-12.458,11.212-12.458S22.424-6.88,22.424,0"/></g><g transform="translate(206.156 236.015)"><path class="n" d="M0,0A.593.593,0,0,1-.593.593H-.87A.593.593,0,0,1-1.462,0V-4.749A.593.593,0,0,1-.87-5.341h.277A.593.593,0,0,1,0-4.749Z"/></g><g transform="translate(228.785 236.015)"><path class="n" d="M0,0A.593.593,0,0,1-.593.593H-.87A.593.593,0,0,1-1.462,0V-4.749A.593.593,0,0,1-.87-5.341h.277A.593.593,0,0,1,0-4.749Z"/></g><g transform="translate(227.773 235.35)"><path class="v" d="M0,0C0,3.112-4.283,5.631-9.577,5.631"/></g><g transform="translate(220.204 241.404)"><path class="n" d="M0,0A.638.638,0,0,1-.61.663H-3.994A.639.639,0,0,1-4.6,0V-.407a.638.638,0,0,1,.61-.663H-.61A.638.638,0,0,1,0-.407Z"/></g></g></g><g transform="translate(11.797 75.131)"><rect class="j" width="46.835" height="46.835" transform="translate(36.753 86.123)"/><g transform="translate(-156.793 -128.948)"><g transform="translate(227.28 240.048)"><path class="w" d="M0,0C1.534,3.372-.111,7.419-.111,7.419S-4.241,6-5.775,2.627s.111-7.419.111-7.419S-1.533-3.372,0,0"/></g><g transform="translate(224.803 247.391)"><path class="r" d="M0,0C-.145,1.517-3.587,2.73-7.814,2.73s-7.681-1.218-7.813-2.739c-6.092,1.055-10.3,3.58-10.3,14.524H10.251C10.251,3.584,6.064,1.06,0,0"/></g><g transform="translate(216.989 250.122)"><path class="l" d="M0,0C4.227,0,7.669-1.214,7.814-2.73c-1.136-.2-2.964-.346-4.216-.445V-4.633c2.212-.208,6.829-6.24,6.8-12.035A12.954,12.954,0,0,0,9.878-20.3c-1.37-4.62-5.286-7.954-9.9-7.954-5.213,0-9.532,4.25-10.3,9.8a7.362,7.362,0,0,0-.123,1.782c.7,6.615,4.494,11.381,6.65,11.935v1.57c-1.179.1-2.937.239-4.012.424C-7.681-1.218-4.234,0,0,0"/></g><g transform="translate(214.147 233.762)"><path class="n" d="M0,0A1.228,1.228,0,0,1-1.121,1.313,1.228,1.228,0,0,1-2.242,0a1.228,1.228,0,0,1,1.12-1.313A1.229,1.229,0,0,1,0,0"/></g><g transform="translate(222.409 233.762)"><path class="n" d="M0,0A1.228,1.228,0,0,1-1.121,1.313,1.228,1.228,0,0,1-2.242,0,1.229,1.229,0,0,1-1.121-1.313,1.229,1.229,0,0,1,0,0"/></g><g transform="translate(211.58 226.163)"><path class="w" d="M0,0A1.587,1.587,0,0,1-.08-.487,1.587,1.587,0,0,0,0,0C.007-.131.011-.264.011-.4c0,.133,0,.265-.011.4A8.459,8.459,0,0,0,5.924,4.685c.931.226.541-1.991.541-1.991S13.972,7.209,16.8,7.223C15.187,1.786,13.719-4.56,5.419-4.759-4.225-4.99-4.769,2.32-5.678,8.854-2.068,8.708-.2,3.689,0,0"/></g><g transform="translate(213.037 232.768)"><path class="c" d="M0,0,.059.008.126.019A.279.279,0,0,1,.211.041a.857.857,0,0,1,.2.1.909.909,0,0,1,.193.18A.574.574,0,0,1,.677.441a.424.424,0,0,1,.051.12A.574.574,0,0,1,.756.789.43.43,0,0,1,.724.945C.712.982.7,1,.7,1S.7.98.7.941A.616.616,0,0,0,.686.793C.68.764.673.731.666.7S.637.633.626.6A.365.365,0,0,0,.575.5.536.536,0,0,0,.509.4.836.836,0,0,0,.349.231,1.356,1.356,0,0,0,.186.106.74.74,0,0,0,.111.063L.051.031,0,0"/></g><g transform="translate(221.306 232.768)"><path class="c" d="M0,0,.059.008.125.019A.279.279,0,0,1,.21.041a.86.86,0,0,1,.2.1.911.911,0,0,1,.192.18A.58.58,0,0,1,.676.441a.444.444,0,0,1,.051.12A.586.586,0,0,1,.756.789.465.465,0,0,1,.724.945C.712.982.7,1,.7,1S.7.98.7.941A.647.647,0,0,0,.685.793C.679.764.673.732.666.7S.636.633.625.6A.354.354,0,0,0,.574.5.514.514,0,0,0,.508.4.813.813,0,0,0,.349.231,1.389,1.389,0,0,0,.185.106.661.661,0,0,0,.11.063L.05.031,0,0"/></g><g transform="translate(220.791 239.449)"><path class="t" d="M0,0S-.068.112-.2.3C-.264.388-.353.5-.458.619A4.419,4.419,0,0,1-.848,1a3.491,3.491,0,0,1-.543.368c-.1.055-.211.113-.323.165s-.234.084-.355.127c-.061.02-.122.044-.184.062l-.191.039c-.128.026-.258.052-.39.075s-.264.025-.4.034l-.2.011-.1.006-.05,0h-.068c-.256-.017-.5-.019-.76-.052-.135-.022-.269-.046-.4-.072l-.2-.038-.185-.06c-.122-.041-.242-.079-.357-.122s-.221-.108-.325-.162L-6.026,1.3c-.047-.032-.094-.064-.138-.1l-.256-.188A4.033,4.033,0,0,1-6.808.632,3.848,3.848,0,0,1-7.061.3c-.127-.191-.19-.3-.19-.3s.114.067.3.192c.091.064.213.125.339.209A1.809,1.809,0,0,0-6.4.515c.075.037.15.081.23.123l.26.1L-5.779.8l.145.041.3.089c.106.017.211.04.319.06l.162.033.165.015q.165.014.332.037c.236.014.5.016.749.028l.693-.027c.114-.016.229-.028.342-.04l.169-.018.162-.034c.107-.022.212-.046.317-.064s.2-.064.3-.092l.145-.043c.047-.017.089-.039.134-.056l.26-.107C-.936.533-.78.462-.649.386S-.4.244-.306.183C-.115.062,0,0,0,0"/></g><g transform="translate(205.594 233.211)"><path class="u" d="M0,0C0-6.88,5.02-12.458,11.212-12.458S22.424-6.88,22.424,0"/></g><g transform="translate(206.156 236.015)"><path class="n" d="M0,0A.593.593,0,0,1-.593.593H-.87A.593.593,0,0,1-1.462,0V-4.749A.593.593,0,0,1-.87-5.341h.277A.593.593,0,0,1,0-4.749Z"/></g><g transform="translate(228.785 236.015)"><path class="n" d="M0,0A.593.593,0,0,1-.593.593H-.87A.593.593,0,0,1-1.462,0V-4.749A.593.593,0,0,1-.87-5.341h.277A.593.593,0,0,1,0-4.749Z"/></g><g transform="translate(227.773 235.35)"><path class="v" d="M0,0C0,3.112-4.283,5.631-9.577,5.631"/></g><g transform="translate(220.204 241.404)"><path class="n" d="M0,0A.638.638,0,0,1-.61.663H-3.994A.639.639,0,0,1-4.6,0V-.407a.638.638,0,0,1,.61-.663H-.61A.638.638,0,0,1,0-.407Z"/></g></g></g><g transform="translate(63.115 75.131)"><rect class="j" width="46.835" height="46.835" transform="translate(36.753 86.123)"/><g transform="translate(-195.747 -207.207)"><g transform="translate(263.763 325.638)"><path class="k" d="M0,0C-.145,1.518-3.59,2.733-7.819,2.733s-7.687-1.219-7.82-2.742c-6.1,1.056-10.309,3.583-10.309,14.536H10.26C10.26,3.586,6.07,1.061,0,0"/></g><g transform="translate(255.944 328.371)"><path class="s" d="M0,0C4.229,0,7.674-1.215,7.819-2.733c-1.137-.2-2.966-.346-4.22-.446V-4.637c2.214-.208,6.835-6.245,6.811-12.045a12.966,12.966,0,0,0-.524-3.634C8.514-24.94,4.6-28.277-.026-28.277c-5.217,0-9.54,4.254-10.312,9.81a7.379,7.379,0,0,0-.123,1.784c.7,6.62,4.5,11.39,6.655,11.945v1.572c-1.18.1-2.939.239-4.015.425C-7.687-1.219-4.238,0,0,0"/></g><g transform="translate(244.735 311.48)"><path class="m" d="M0,0C0-6.886,5.024-12.468,11.221-12.468S22.443-6.886,22.443,0"/></g><g transform="translate(245.298 314.287)"><path class="n" d="M0,0A.593.593,0,0,1-.593.593H-.87A.593.593,0,0,1-1.463,0V-4.753A.593.593,0,0,1-.87-5.346h.278A.593.593,0,0,1,0-4.753Z"/></g><g transform="translate(267.947 314.287)"><path class="n" d="M0,0A.593.593,0,0,1-.593.593H-.87A.593.593,0,0,1-1.463,0V-4.753A.593.593,0,0,1-.87-5.346h.278A.593.593,0,0,1,0-4.753Z"/></g><g transform="translate(266.934 313.621)"><path class="o" d="M0,0C0,2.862-4.287,5.179-9.586,5.179"/></g><g transform="translate(259.358 319.189)"><path class="n" d="M0,0A.61.61,0,0,1-.61.61H-4A.611.611,0,0,1-4.608,0V-.374A.61.61,0,0,1-4-.985H-.61A.61.61,0,0,1,0-.374Z"/></g><g transform="translate(253.099 311.998)"><path class="n" d="M0,0A1.229,1.229,0,0,1-1.122,1.314,1.229,1.229,0,0,1-2.244,0,1.23,1.23,0,0,1-1.122-1.314,1.23,1.23,0,0,1,0,0"/></g><g transform="translate(261.368 311.998)"><path class="n" d="M0,0A1.229,1.229,0,0,1-1.122,1.314,1.229,1.229,0,0,1-2.244,0,1.229,1.229,0,0,1-1.122-1.314,1.23,1.23,0,0,1,0,0"/></g><g transform="translate(251.31 304.141)"><path class="q" d="M0,0A1.318,1.318,0,0,1-.068-.414,1.318,1.318,0,0,0,0,0Q.009-.168.009-.337.009-.167,0,0C.38,1.17,4.5,3.2,7.43,3.914,8.222,4.106,5.5,2.291,5.5,2.291S12.114,3.9,14.52,3.913C13.148-.71,9.229-4.047,4.608-4.047-.609-4.047-4.931.207-5.7,5.763A6.023,6.023,0,0,0,0,0"/></g><g transform="translate(251.988 311.002)"><path class="c" d="M0,0,.059.008.126.02A.279.279,0,0,1,.211.041a.853.853,0,0,1,.205.1.923.923,0,0,1,.192.18A.584.584,0,0,1,.677.441a.427.427,0,0,1,.051.12A.574.574,0,0,1,.757.79.46.46,0,0,1,.725.946C.713.983.7,1,.7,1S.7.98.7.942A.668.668,0,0,0,.686.794C.68.764.673.732.666.7S.637.634.626.6A.338.338,0,0,0,.574.5.5.5,0,0,0,.508.4.8.8,0,0,0,.349.231,1.382,1.382,0,0,0,.186.106.634.634,0,0,0,.11.063L.051.031,0,0"/></g><g transform="translate(260.264 311.002)"><path class="c" d="M0,0,.059.008.126.02A.277.277,0,0,1,.211.041a.851.851,0,0,1,.2.1.925.925,0,0,1,.193.18A.581.581,0,0,1,.678.442a.426.426,0,0,1,.051.12A.581.581,0,0,1,.757.79.44.44,0,0,1,.725.946C.713.983.7,1,.7,1S.7.98.7.942A.639.639,0,0,0,.686.794C.681.764.674.732.667.7S.637.634.626.6A.371.371,0,0,0,.575.5.526.526,0,0,0,.508.4.805.805,0,0,0,.349.231,1.288,1.288,0,0,0,.186.106.659.659,0,0,0,.111.063L.051.031,0,0"/></g></g></g></g></g></svg>