<svg xmlns="http://www.w3.org/2000/svg" width="418.729" height="309.766" viewBox="0 0 418.729 309.766"><defs><style>.a{fill:#fce1c2;}.b,.c{fill:none;stroke:#000;stroke-width:2px;}.b{stroke-linecap:round;}.b,.d{stroke-linejoin:round;}.d{fill:#9d9d9d;stroke:#9d9d9d;stroke-width:7px;}.e{fill:#2d2b39;}</style></defs><g transform="translate(-214 3.328)"><path class="a" d="M2623.024,131.157c.427,4.431.933,8.736,1.567,13.313,13.839,100.018,42.7,122.826,52.046,130.213s28.9,8.536,46.914,0,57.582-85.644,53.438-150.979" transform="translate(-2266.803 -66.615)"/><path d="M2627.657,165.241c1.118,3.2,6.676-9.5,14.647-19.886s8.778-17.819,17.239-21.668,18.552,13.785,28.188,13.389,23.071-15.606,31.849-13.389c6.029-2.488,11.364,11.846,23.537,17.094,7.582,2.672,14.23-3.778,20.27-3.705s10.64,12.274,11.221,12.183c2.009-.314,7.626-8.478,7.626-8.478s2.988-10.129,5.476-17.094,7.532-28.234,4.971-31.956-20.5-5.98-20.5-5.98,1.87-15.651-2.509-19.484-34.569,3.163-34.569,3.163a39.175,39.175,0,0,0-19.368-12.82c-8.2-2.383-24.845-3.928-35.332-4.293-12.142-.424-24.65,7.01-32.891,10.856-12.736,5.944-13.415,13.218-17.169,19.556-3.279,5.527-6.251,14.022-7.487,25.553C2620.331,131.814,2626.539,162.041,2627.657,165.241Z" transform="translate(-2266.929 -55.626)"/><circle cx="3.396" cy="3.396" r="3.396" transform="translate(459.813 122.806)"/><g transform="translate(383.712 110.487)"><rect class="b" width="39.635" height="21.857" rx="2" transform="translate(3 1)"/><rect class="b" width="39.635" height="21.857" rx="2" transform="translate(59.775 1)"/><path class="c" d="M1.318,0H19" transform="translate(41.317 11.52)"/></g><path class="d" d="M0,0H194.686V138.091H0Z" transform="translate(331.268 162.284)"/><rect class="e" width="418.729" height="5.791" transform="translate(214 300.646)"/><circle cx="3.396" cy="3.396" r="3.396" transform="translate(403.813 122.806)"/></g></svg>