<svg xmlns="http://www.w3.org/2000/svg" xmlns:xlink="http://www.w3.org/1999/xlink" width="632.729" height="319.388" viewBox="0 0 632.729 319.388"><defs><style>.a{fill:#fce1c2;}.b,.c,.i{fill:none;}.b,.c{stroke:#000;stroke-width:2px;}.b,.h{stroke-linecap:round;}.b,.d,.h{stroke-linejoin:round;}.d,.g,.h{fill:#9d9d9d;}.d,.h{stroke:#9d9d9d;}.d{stroke-width:7px;}.e{fill:#fff;}.f{fill:#2d2b39;}.h{stroke-width:3px;}.i{stroke:#707070;}.j{filter:url(#g);}.k{filter:url(#e);}.l{filter:url(#c);}.m{filter:url(#a);}</style><filter id="a" x="347.22" y="58.416" width="172.267" height="174.958" filterUnits="userSpaceOnUse"><feOffset dy="3" input="SourceAlpha"/><feGaussianBlur stdDeviation="3" result="b"/><feFlood flood-opacity="0.161"/><feComposite operator="in" in2="b"/><feComposite in="SourceGraphic"/></filter><filter id="c" x="346.327" y="0" width="189.131" height="131.446" filterUnits="userSpaceOnUse"><feOffset dy="5" input="SourceAlpha"/><feGaussianBlur stdDeviation="3" result="d"/><feFlood flood-opacity="0.161"/><feComposite operator="in" in2="d"/><feComposite in="SourceGraphic"/></filter><filter id="e" x="183.089" y="294.178" width="74.64" height="25.21" filterUnits="userSpaceOnUse"><feOffset dy="3" input="SourceAlpha"/><feGaussianBlur stdDeviation="3" result="f"/><feFlood flood-opacity="0.161"/><feComposite operator="in" in2="f"/><feComposite in="SourceGraphic"/></filter><filter id="g" x="129.89" y="294.178" width="74.64" height="25.21" filterUnits="userSpaceOnUse"><feOffset dy="3" input="SourceAlpha"/><feGaussianBlur stdDeviation="3" result="h"/><feFlood flood-opacity="0.161"/><feComposite operator="in" in2="h"/><feComposite in="SourceGraphic"/></filter></defs><g transform="translate(-1021.341 -216.059)"><g transform="translate(1021.341 220.059)"><g transform="translate(0 3.328)"><g class="m" transform="matrix(1, 0, 0, 1, 0, -7.33)"><path class="a" d="M2623.024,131.157c.427,4.431.933,8.736,1.567,13.313,13.839,100.018,42.7,122.826,52.046,130.213s28.9,8.536,46.914,0,57.582-85.644,53.438-150.979" transform="translate(-2266.8 -59.29)"/></g><g class="l" transform="matrix(1, 0, 0, 1, 0, -7.33)"><path d="M2627.657,165.241c1.118,3.2,6.676-9.5,14.647-19.886s8.778-17.819,17.239-21.668,18.552,13.785,28.188,13.389,23.071-15.606,31.849-13.389c6.029-2.488,11.364,11.846,23.537,17.094,7.582,2.672,14.23-3.778,20.27-3.705s10.64,12.274,11.221,12.183c2.009-.314,7.626-8.478,7.626-8.478s2.988-10.129,5.476-17.094,7.532-28.234,4.971-31.956-20.5-5.98-20.5-5.98,1.87-15.651-2.509-19.484-34.569,3.163-34.569,3.163a39.175,39.175,0,0,0-19.368-12.82c-8.2-2.383-24.845-3.928-35.332-4.293-12.142-.424-24.65,7.01-32.891,10.856-12.736,5.944-13.415,13.218-17.169,19.556-3.279,5.527-6.251,14.022-7.487,25.553C2620.331,131.814,2626.539,162.041,2627.657,165.241Z" transform="translate(-2266.93 -48.3)"/></g><circle cx="3.396" cy="3.396" r="3.396" transform="translate(459.813 122.806)"/><g transform="translate(383.712 110.487)"><rect class="b" width="39.635" height="21.857" rx="2" transform="translate(3 1)"/><rect class="b" width="39.635" height="21.857" rx="2" transform="translate(59.775 1)"/><path class="c" d="M1.318,0H19" transform="translate(41.317 11.52)"/></g><path class="d" d="M0,0H194.686V138.091H0Z" transform="translate(331.268 162.284)"/><circle class="e" cx="14.149" cy="14.149" r="14.149" transform="translate(416.537 218.017)"/><rect class="f" width="632.729" height="6.791" transform="translate(0 300.646)"/><circle cx="3.396" cy="3.396" r="3.396" transform="translate(403.813 122.806)"/><g transform="translate(86.426 63.206)"><path class="g" d="M0,138.552V0S24.876,10.488,82.062,18.523c.622,1.221,50.032,8.727,70.806,9.979,5.257.317,10.429.613,15.715.9,33.337,1.826,60.162,2.734,60.162,2.734v141.55" transform="matrix(0.999, -0.035, 0.035, 0.999, 0, 7.983)"/><path class="g" d="M0,0S12.45,13.036,69.69,21.249C88.808,23.991,128.051,31,148.844,32.284c40.474,2.491,80.041,3.752,80.041,3.752" transform="matrix(0.999, -0.035, 0.035, 0.999, 4.664, 145.487)"/><rect class="g" width="12.451" height="97.343" transform="translate(102.601 140.097)"/><g class="k" transform="matrix(1, 0, 0, 1, -86.43, -70.53)"><path class="h" d="M0,0H53.64V4.21H0Z" transform="translate(193.59 301.68)"/></g><g class="j" transform="matrix(1, 0, 0, 1, -86.43, -70.53)"><path class="h" d="M0,0H53.64V4.21H0Z" transform="translate(140.39 301.68)"/></g><path class="i" d="M1127.689,298.471" transform="translate(-1127.689 -290.543)"/></g></g></g></g></svg>